<svg xmlns="http://www.w3.org/2000/svg" viewBox="0 0 1680 464"><defs><style>.a{fill:#fff;}</style></defs><title>DPL-logo-outlines</title><path class="a" d="M379.87,298.42V165.94q23.8-1.73,45.89-1.73,28,0,39.26,15.07t11.23,52.9q0,37.83-11.23,52.9t-39.26,15.07Q404.06,300.15,379.87,298.42Zm12.48-122.69v112.9q19.2.39,33.41.38,20.93,0,29.09-12.48T463,232.18q0-31.87-8.16-44.45t-29.09-12.58Q422.3,175.16,392.35,175.73Z"/><path class="a" d="M555.61,257.91H509.14q1.15,18.43,8.45,25.34t23.81,6.91a249.87,249.87,0,0,0,32.06-2.3l1.34,8.26q-11.91,4.61-35.14,4.61-23.43,0-33.31-11.23t-9.89-37.92q0-26.88,9.6-37.73T538.13,203q19.77,0,29.18,7.2t9.6,21.79Q577.3,257.91,555.61,257.91Zm-46.46-9.6h43.58q12.28,0,11.9-16.13-.19-9.79-6.34-14.21t-19.58-4.42q-16.32,0-22.85,7.58T509.14,248.31Z"/><path class="a" d="M680.27,205.49l-35.52,89.86a4.48,4.48,0,0,1-4.61,3.07H628.81a4.48,4.48,0,0,1-4.61-3.07l-35.52-89.86h13.06l25.34,67.2q1.15,2.88,3.17,8.64t3,8.06h2.5l6.34-16.9,25.34-67Z"/><path class="a" d="M699.33,298.42V165.94q15.93-1.53,44.35-1.54,23.23,0,32.16,8.54t8.93,32q0,23.43-8.74,32t-31,8.54q-16.7,0-33.22-1.54v54.53Zm12.48-63.94h31.68q16.13-.19,22.27-6.24t6.14-23.33q0-17.47-6.14-23.62t-22.27-6.14q-16.32,0-31.68.38Z"/><path class="a" d="M810.5,214q9.69-11,33.12-11t33,11q9.6,11,9.6,37.92t-9.6,37.82q-9.6,10.94-33,10.94t-33.12-11q-9.7-11-9.7-37.73Q800.8,225.08,810.5,214ZM867,221.81q-6.53-8.25-23.42-8.26t-23.42,8.26q-6.53,8.26-6.53,30.14t6.53,30.14q6.52,8.26,23.42,8.26T867,282.1q6.53-8.25,6.53-30.14T867,221.81Z"/><path class="a" d="M911.84,166.32h5.57q4,0,4,4v11.14q0,4-4,4h-5.57q-4,0-4-4V170.36Q907.8,166.32,911.84,166.32Zm8.83,132.1h-12.1V205.49h12.1Z"/><path class="a" d="M957,205.49l1,15.36q23.23-17.86,43-17.86,25,0,25,25.54v69.89h-12.1V231.8q0-9.79-3.74-14t-12.38-4.22a41.19,41.19,0,0,0-17,3.84,171.94,171.94,0,0,0-21.6,12.29v68.74H946.8V205.49Z"/><path class="a" d="M1101,288.82l1.54,9.22A98.86,98.86,0,0,1,1083.1,300q-23,0-23-23.23V215.09h-16.9v-8.64l16.9-1V177.27h12.1v28.22h31.49v9.6h-31.49v60.29q0,13.44,13.63,13.44Z"/><path class="a" d="M1181.78,165.94v107.9q0,14,13.82,14H1245l.38,9.6q-20.35,1.15-51.84,1.15-12.1,0-18.24-6.34t-6.14-16.7V165.94Z"/><path class="a" d="M1265.41,216.24l-1.15-9Q1292.1,203,1309,203q15,0,22.37,6.62t7.39,22v66.82h-9.6l-1.54-16.32a67.58,67.58,0,0,1-18,12.38,50.67,50.67,0,0,1-22.75,5.47q-12.29,0-19.39-6.53t-7.1-18.62V264.05q0-10.75,6.34-16.7t18-6h41.66V231.6q0-9.22-4.32-13.63t-15.46-4.42A395.16,395.16,0,0,0,1265.41,216.24Zm7.3,49.34v8.06q0,15.55,16.32,15.55,8.45.19,18.91-4.13a63.43,63.43,0,0,0,18.53-11.62V251.19h-39.74Q1272.71,251.76,1272.71,265.59Z"/><path class="a" d="M1376.06,164v37.25q0,13.44-1.34,20Q1393.34,203,1411.58,203q17.85,0,25.82,11.33t8,37.44q0,25.54-8.93,37.25t-31,11.71a137.52,137.52,0,0,1-41.47-6.34V164Zm0,65.47v57a97.09,97.09,0,0,0,29.18,3.65q15,0,21.22-8.64t6.24-29.76q0-21.31-5.28-29.66t-19.3-8.35a30.39,30.39,0,0,0-14.5,3.74A129.41,129.41,0,0,0,1376.06,229.49Z"/><path class="a" d="M1512.46,259.06,1484,253.68q-10.94-2.11-15.84-8t-4.9-17.38q0-15.74,8-20.64T1499,203a299.85,299.85,0,0,1,38,2.88l-1.15,8.83q-23-1.15-35.33-1.15-15.36-.19-20.35,2.21t-5,12.58q0,7.88,3.26,10.94t10.94,4.61l28.61,5.38q11.13,2.3,16.32,8t5.18,17q0,16.32-8.74,21.31t-29.86,5a238.35,238.35,0,0,1-35.52-2.5l1-9q15.16,1.34,32.45,1.15,17.09-.19,22.94-3.17t5.86-12.77q0-7.49-3.65-10.56T1512.46,259.06Z"/><path class="a" d="M311.61,301.12,261.83,166h10a6.26,6.26,0,0,0,6.17-6V148a6.26,6.26,0,0,0-6.17-6h-84a5.75,5.75,0,0,0-5.83,6v12a5.75,5.75,0,0,0,5.83,6H188V148h83.84a.35.35,0,0,1,.16.24v11.51a.33.33,0,0,1-.17.24H253.23l3,8.07,22.71,61.65c-36.6-3-40.23-30.7-86.49-31.69l11-30,3-8.07H194v6h3.83L186,198.09h0L172.42,235,148,301.12a15.37,15.37,0,0,0-1,6.57,11.9,11.9,0,0,0,.21,1.48c1.11,5.26,5.74,8.84,12.58,8.84h140C309.77,318,315,310.44,311.61,301.12ZM262,246a16,16,0,1,1-16,16A16,16,0,0,1,262,246Zm-20,48a12,12,0,1,1-12-12A12,12,0,0,1,242,294Zm-28-72a24,24,0,1,1-24,24A24,24,0,0,1,214,222Z"/></svg>